<svg xmlns="http://www.w3.org/2000/svg" width="1000" height="620" viewBox="0 0 1000 620"><rect width="1000" height="620" fill="#f5f6f8"/><g opacity=".42"><rect x="30" y="62" width="940" height="500" rx="18" fill="#fff" stroke="#d9e0e7"/><text x="54" y="96" font-family="Arial" font-size="12" font-weight="700" fill="#718095">SPIELPLAN</text><rect x="54" y="122" width="892" height="336" rx="14" fill="#fff" stroke="#9db4cb"/><text x="72" y="160" font-family="Arial" font-size="17" font-weight="700" fill="#24344b">17.10.26</text><circle cx="210" cy="155" r="18" fill="#d0021b"/><text x="210" y="159" font-family="Arial" font-size="8" text-anchor="middle" font-weight="700" fill="#fff">FCB</text><text x="242" y="160" font-family="Arial" font-size="13" font-weight="700" fill="#a0a8b3">–</text><circle cx="276" cy="155" r="18" fill="#f2d300"/><text x="276" y="159" font-family="Arial" font-size="8" text-anchor="middle" font-weight="700" fill="#111">BVB</text><text x="306" y="160" font-family="Arial" font-size="14" font-weight="700" fill="#172033">Borussia Dortmund</text><rect x="72" y="215" width="190" height="160" rx="8" fill="#d0021b"/><rect x="270" y="215" width="190" height="160" rx="8" fill="#d0021b"/><rect x="468" y="215" width="190" height="160" rx="8" fill="#d0021b"/><rect x="666" y="215" width="190" height="160" rx="8" fill="#d0021b"/></g><rect width="1000" height="620" fill="#071b35" opacity=".46"/><rect x="265" y="58" width="470" height="504" rx="20" fill="#fff"/><g font-family="Arial,sans-serif"><text x="289" y="91" font-size="9" font-weight="700" fill="#0070ba">PAYPAL.ME</text><text x="289" y="122" font-size="24" font-weight="700" fill="#071b35">Zahlung anfordern</text><circle cx="699" cy="94" r="16" fill="#fff" stroke="#e1e5ea"/><text x="699" y="101" font-size="20" text-anchor="middle" fill="#6e7888">×</text><rect x="289" y="148" width="422" height="70" rx="10" fill="#f6f8fa" stroke="#e4e8ed"/><text x="303" y="174" font-size="13" font-weight="700" fill="#172033">Chris · 238/4/6</text><text x="303" y="198" font-size="10" fill="#758095">8. Spieltag · Borussia Dortmund · 17.10.26</text><text x="289" y="247" font-size="8" font-weight="700" fill="#7f8998">BETRAG PRO KARTE</text><rect x="289" y="264" width="422" height="52" rx="10" fill="#fff" stroke="#d8dee6"/><text x="303" y="298" font-size="22" font-weight="700" fill="#071b35">50,00</text><text x="677" y="298" font-size="15" font-weight="700" fill="#7a8493">€</text><text x="289" y="338" font-size="10" fill="#7c8796">Der Betrag wird für dieses Spiel gespeichert.</text><rect x="289" y="360" width="422" height="90" rx="10" fill="#eef7ff" stroke="#cde5f6"/><text x="303" y="390" font-size="19" font-weight="700" fill="#003087">50,00 €</text><text x="303" y="415" font-size="10" fill="#31536c">8. Spieltag · Borussia Dortmund</text><text x="303" y="434" font-size="10" fill="#31536c">paypal.me/tommaerz/50.00</text><rect x="289" y="476" width="154" height="46" rx="9" fill="#fff" stroke="#cbd3dc"/><text x="366" y="504" font-size="10" text-anchor="middle" font-weight="700" fill="#33445a">Link kopieren</text><rect x="451" y="476" width="260" height="46" rx="9" fill="#0070ba"/><text x="581" y="504" font-size="10" text-anchor="middle" font-weight="700" fill="#fff">Zahlungsaufforderung teilen</text><text x="24" y="594" font-size="9" fill="#c6ced8">Echte Produktansicht · Beispieldaten anonymisiert</text></g></svg>